<svg id="Capa_1" enable-background="new 0 0 511.412 511.412" height="512" viewBox="0 0 511.412 511.412" width="512" xmlns="http://www.w3.org/2000/svg"><g><g><path d="m511.412 187.177-46.489-52.262-22.016-66.392-66.378-22.08-52.318-46.4-68.505 14.024-20 234.306 20 248.972.004-.001 68.525 14.068 52.262-46.489 66.391-22.015 22.081-66.379 46.4-52.318-14.025-68.509z" fill="#e85100"/><path d="m255.702 14.068-68.525-14.068-52.262 46.489-66.391 22.015-22.081 66.379-46.4 52.318 14.024 68.509-14.067 68.525 46.489 52.262 22.015 66.392 66.379 22.08 52.318 46.4 68.505-14.024v-483.278z" fill="#fd6717"/></g><g><path d="m255.706 80.706-10 186.764 10 163.236c96.495 0 175-78.505 175-175s-78.505-175-175-175z" fill="#fdb902"/><path d="m80.706 255.706c0 96.495 78.505 175 175 175v-350c-96.495 0-175 78.505-175 175z" fill="#fdcb02"/></g><g><path d="m326.58 269.803c-12.655 27.683-40.475 45.57-70.874 45.57l-10 12.699 10 17.301c42.106 0 80.635-24.767 98.158-63.096z" fill="#efe2dd"/><path d="m184.832 269.803-27.284 12.474c17.523 38.33 56.052 63.096 98.158 63.096v-30c-30.399 0-58.219-17.888-70.874-45.57z" fill="#faeee5"/></g><g><path d="m430.634 197.77h-143.342c-8.583-7.114-19.593-11.396-31.586-11.396l-10.256 13.53 10.256 17.239c10.368 0 18.803 8.436 18.803 18.804h.101c2.078 46.28 40.168 83.346 86.858 83.757 38.039.334 69.166-30.926 69.166-68.966z" fill="#4b5055"/><path d="m224.12 197.77h-143.343v52.967c0 38.041 31.127 69.301 69.166 68.966 46.689-.41 84.779-37.476 86.858-83.757h.101c0-10.385 8.419-18.804 18.804-18.804v-30.769c-11.993.001-23.003 4.283-31.586 11.397z" fill="#5a5f64"/></g><path d="m369.942 85.812c-8.147-10.213-24.046-23.525-24.046-23.525s-15.9 13.312-24.046 23.525c-11.64 14.592-17.542 28.642-17.542 41.76 0 22.932 18.656 41.588 41.588 41.588s41.588-18.657 41.588-41.588c0-13.118-5.902-27.168-17.542-41.76z" fill="#faeee5"/></g></svg>