<svg id="Layer_1" enable-background="new 0 0 486.708 486.708" height="512" viewBox="0 0 486.708 486.708" width="512" xmlns="http://www.w3.org/2000/svg"><g><path d="m377.98 270c49.626 0 90-40.374 90-90 0-33.007-17.724-62.902-46.471-78.779-9.113-57.913-59.545-101.221-118.529-101.221-37.902 0-73.527 17.942-96.155 48.207-7.749-2.13-15.75-3.207-23.845-3.207-32.347 0-61.907 17.176-77.98 45.062-48.078 1.771-86.646 41.435-86.646 89.938 0 49.379 40.173 89.748 89.625 89.99l109.531.004-60.004 105.006h121.577l-49.145 98.292 26.832 13.416 70.855-141.708h-118.423l42.859-75.004zm-329.626-90c0-33.084 26.916-60 60.041-60h.028c9.036-.001 17.245-4.935 21.425-12.882 10.422-19.811 30.781-32.118 53.132-32.118 6.406 0 12.716 1.009 18.75 2.996 9.998 3.297 21.191-.485 27.226-9.192 16.841-24.298 44.514-38.804 74.024-38.804 44.991 0 83.346 33.579 89.216 78.105 1.044 7.928 5.864 14.791 12.894 18.361l.002.001c20.286 10.299 32.889 30.811 32.889 53.532 0 33.084-26.916 60-59.999 60l-269.928-.01c-32.919-.16-59.7-27.071-59.7-59.989z"/><path d="m18.354 300h30v30h-30z"/><path d="m78.354 300h30v30h-30z"/><path d="m48.354 360h30v30h-30z"/><path d="m18.354 420h30v30h-30z"/><path d="m78.354 420h30v30h-30z"/><path d="m378.354 300h30v30h-30z"/><path d="m438.354 300h30v30h-30z"/><path d="m408.354 360h30v30h-30z"/><path d="m378.354 420h30v30h-30z"/><path d="m438.354 420h30v30h-30z"/></g></svg>